<?xml version="1.0" ?><!DOCTYPE svg  PUBLIC '-//W3C//DTD SVG 1.1//EN'  'http://www.w3.org/Graphics/SVG/1.1/DTD/svg11.dtd'><svg enable-background="new 0 0 140 140" id="Layer_17" version="1.1" viewBox="0 0 140 140" xml:space="preserve" xmlns="http://www.w3.org/2000/svg" xmlns:xlink="http://www.w3.org/1999/xlink"><g><defs><filter filterUnits="userSpaceOnUse" height="97.071106" id="Adobe_OpacityMaskFilter" width="97.0710449" x="42.9289551" y="42.928894"><feColorMatrix type="matrix" values="1 0 0 0 0  0 1 0 0 0  0 0 1 0 0  0 0 0 1 0"/></filter></defs><mask height="97.071106" id="SVGID_1_" maskUnits="userSpaceOnUse" width="97.0710449" x="42.9289551" y="42.928894"><g filter="url(#Adobe_OpacityMaskFilter)"><radialGradient cx="70" cy="70" gradientTransform="matrix(0.7071068 0.7071068 -0.2721382 0.2721382 39.5522003 1.4528493)" gradientUnits="userSpaceOnUse" id="SVGID_2_" r="106.5634918"><stop offset="0.3" style="stop-color:#FFFFFF"/><stop offset="0.85" style="stop-color:#FFFFFF;stop-opacity:0"/></radialGradient><rect fill="url(#SVGID_2_)" height="140" width="140"/></g></mask><linearGradient gradientUnits="userSpaceOnUse" id="SVGID_3_" x1="69.9999847" x2="140.0000153" y1="69.9999542" y2="139.9999847"><stop offset="0" style="stop-color:#000000;stop-opacity:0.4"/><stop offset="0.8" style="stop-color:#000000;stop-opacity:0"/></linearGradient><polygon fill="url(#SVGID_3_)" mask="url(#SVGID_1_)" points="140,85.8580933    97.0710449,42.928894 42.9289551,97.0710449 85.8580933,140 140,140  "/><defs><filter filterUnits="userSpaceOnUse" height="97.071106" id="Adobe_OpacityMaskFilter_1_" width="97.0710449" x="42.9289551" y="42.928894"><feColorMatrix type="matrix" values="1 0 0 0 0  0 1 0 0 0  0 0 1 0 0  0 0 0 1 0"/></filter></defs><mask height="97.071106" id="SVGID_4_" maskUnits="userSpaceOnUse" width="97.0710449" x="42.9289551" y="42.928894"><g filter="url(#Adobe_OpacityMaskFilter_1_)"><radialGradient cx="70" cy="70" gradientTransform="matrix(0.7071068 0.7071068 -0.3889087 0.3889087 47.7261353 -6.7210855)" gradientUnits="userSpaceOnUse" id="SVGID_5_" r="79.5565872"><stop offset="0.3" style="stop-color:#FFFFFF"/><stop offset="0.85" style="stop-color:#FFFFFF;stop-opacity:0"/></radialGradient><rect fill="url(#SVGID_5_)" height="140" width="140"/></g></mask><linearGradient gradientUnits="userSpaceOnUse" id="SVGID_6_" x1="69.9999847" x2="140.0000153" y1="69.9999542" y2="139.9999847"><stop offset="0" style="stop-color:#BD081C;stop-opacity:0.6"/><stop offset="0.5" style="stop-color:#BD081C;stop-opacity:0"/></linearGradient><polygon fill="url(#SVGID_6_)" mask="url(#SVGID_4_)" points="140,85.8580933    97.0710449,42.928894 42.9289551,97.0710449 85.8580933,140 140,140  "/><path d="M90,100H50c-5.5228462,0-10-4.47715-10-10V50c0-5.5228462,4.4771538-10,10-10h40   c5.52285,0,10,4.4771538,10,10v40C100,95.52285,95.52285,100,90,100z" fill="#BD081C"/><g><defs><path d="M90,41c4.9626236,0,9,4.0373802,9,9v40c0,4.9626236-4.0373764,9-9,9H50c-4.9626198,0-9-4.0373764-9-9V50     c0-4.9626198,4.0373802-9,9-9H90 M90,40H50c-5.52285,0-10,4.47715-10,10v40c0,5.52285,4.47715,10,10,10h40     c5.52285,0,10-4.47715,10-10V50C100,44.47715,95.52285,40,90,40L90,40z" id="SVGID_115_"/></defs><clipPath id="SVGID_8_"><use overflow="visible" xlink:href="#SVGID_115_"/></clipPath><linearGradient gradientUnits="userSpaceOnUse" id="SVGID_9_" x1="20" x2="120" y1="20" y2="120"><stop offset="0" style="stop-color:#FFFFFF;stop-opacity:0.8"/><stop offset="0.6" style="stop-color:#FFFFFF;stop-opacity:0"/></linearGradient><rect clip-path="url(#SVGID_8_)" fill="url(#SVGID_9_)" height="100" width="100" x="20" y="20"/></g><g><defs><path d="M90,41c4.9626236,0,9,4.0373802,9,9v40c0,4.9626236-4.0373764,9-9,9H50c-4.9626198,0-9-4.0373764-9-9V50     c0-4.9626198,4.0373802-9,9-9H90 M90,40H50c-5.52285,0-10,4.47715-10,10v40c0,5.52285,4.47715,10,10,10h40     c5.52285,0,10-4.47715,10-10V50C100,44.47715,95.52285,40,90,40L90,40z" id="SVGID_118_"/></defs><clipPath id="SVGID_11_"><use overflow="visible" xlink:href="#SVGID_118_"/></clipPath><linearGradient gradientUnits="userSpaceOnUse" id="SVGID_12_" x1="20" x2="120" y1="20" y2="120"><stop offset="0.4" style="stop-color:#000000;stop-opacity:0"/><stop offset="1" style="stop-color:#000000;stop-opacity:0.2"/></linearGradient><rect clip-path="url(#SVGID_11_)" fill="url(#SVGID_12_)" height="100" width="100" x="20" y="20"/></g><g><defs><path d="M50,99c-4.9624023,0-9-4.0375977-9-9V50c0-4.9624023,4.0375977-9,9-9h40c4.9624023,0,9,4.0375977,9,9v40     c0,4.9624023-4.0375977,9-9,9H50z" id="SVGID_121_"/></defs><clipPath id="SVGID_14_"><use overflow="visible" xlink:href="#SVGID_121_"/></clipPath><radialGradient cx="45" cy="45" gradientUnits="userSpaceOnUse" id="SVGID_15_" r="45"><stop offset="0" style="stop-color:#FFFFFF;stop-opacity:0.2"/><stop offset="1" style="stop-color:#FFFFFF;stop-opacity:0"/></radialGradient><circle clip-path="url(#SVGID_14_)" cx="45" cy="45" fill="url(#SVGID_15_)" r="45"/></g><g><defs><path d="M90,99.1499023H50c-5.0454102,0-9.1499023-4.1044922-9.1499023-9.1499023V50     c0-5.0454102,4.1044922-9.1499023,9.1499023-9.1499023h40c5.0454102,0,9.1499023,4.1044922,9.1499023,9.1499023v40     C99.1499023,95.0454102,95.0454102,99.1499023,90,99.1499023z M50,41.1499023     c-4.8798828,0-8.8500977,3.9702148-8.8500977,8.8500977v40c0,4.8798828,3.9702148,8.8500977,8.8500977,8.8500977h40     c4.8798828,0,8.8500977-3.9702148,8.8500977-8.8500977V50c0-4.8798828-3.9702148-8.8500977-8.8500977-8.8500977H50z" id="SVGID_124_"/></defs><clipPath id="SVGID_17_"><use overflow="visible" xlink:href="#SVGID_124_"/></clipPath><linearGradient gradientUnits="userSpaceOnUse" id="SVGID_18_" x1="20" x2="120" y1="20" y2="120"><stop offset="0.2" style="stop-color:#FFFFFF;stop-opacity:0.8"/><stop offset="0.7" style="stop-color:#FFFFFF;stop-opacity:0"/></linearGradient><rect clip-path="url(#SVGID_17_)" fill="url(#SVGID_18_)" height="100" width="100" x="20" y="20"/></g><path d="M84.1422119,55.8579102L62.375,54.875L53.25,66.5l2.6110229,17.6461182   L71.7148438,100H90c5.5228271,0,10-4.4771729,10-10V71.7156982L84.1422119,55.8579102z" opacity="0.12"/><path d="M64.1279373,89.1199951c1.8649979,0.5725021,3.8399963,0.8799973,5.8899994,0.8799973   c11.0456924-0.009903,19.9919586-8.9722366,19.9820557-20.0179291   c-0.0099106-11.0456886-8.9722366-19.9919586-20.0179291-19.9820518s-19.9919624,8.9722404-19.9820557,20.0179329   c0.0074463,8.3001862,5.1407928,15.7331619,12.9004288,18.6795502c-0.1824989-1.5625-0.3774986-4.1374969,0.0425034-5.9449997   c0.3624992-1.5524979,2.3349991-9.8949966,2.3349991-9.8949966s-0.5950012-1.1925049-0.5950012-2.9575043   c0-2.7675018,1.6050034-4.8349991,3.5999985-4.8349991c1.7000046,0,2.5200043,1.2750015,2.5200043,2.8050003   c0,1.7075043-1.0875015,4.2624969-1.6500015,6.6299973c-0.4674988,1.9800034,0.9950027,3.5975037,2.9499969,3.5975037   c3.5400009,0,6.2600021-3.7324982,6.2600021-9.1175003c0-4.7675018-3.4249954-8.1000023-8.3174973-8.1000023   c-5.6650009,0-8.9900017,4.2500038-8.9900017,8.6400032c0,1.7099991,0.6599998,3.5449982,1.482502,4.5424957   c0.1436577,0.1531982,0.1959152,0.3707809,0.1374969,0.5725021c-0.1499977,0.6300049-0.4874992,1.9800034-0.5524979,2.2574997   c-0.0875015,0.3649979-0.2900009,0.4425049-0.6674995,0.2675018c-2.4850006-1.1600037-4.0375023-4.7949982-4.0375023-7.715004   c0-6.279995,4.5625-12.0499954,13.1549988-12.0499954c6.9075012,0,12.2750015,4.9249992,12.2750015,11.5   c0,6.8624954-4.3249969,12.3849945-10.3324966,12.3849945c-2.0175018,0-3.9150009-1.0499954-4.5625-2.284996   c0,0-1,3.8000031-1.2400055,4.7324982c-0.4699936,1.8050003-1.7749939,4.0924988-2.5824966,5.3925018H64.1279373z" fill="#FFFFFF"/><path d="M66.3818817,89.6707535c1.1792908,0.2163467,2.3939056,0.3292389,3.636055,0.3292389   c7.7703781-0.0069656,14.5018005-4.4442978,17.8071823-10.9206238c0,0-3.4888611,5.3988571-9.950119,8.1289673   C71.9583359,89.7083359,66.3818817,89.6707535,66.3818817,89.6707535z" fill="#BD081C" opacity="0.4"/></g></svg>